<svg width="144" height="103" viewBox="0 0 144 103" fill="none" xmlns="http://www.w3.org/2000/svg">
<rect width="144" height="103" fill="#E5E5E5"/>
<g id="Grover-Grocery Food Delivery Website" clip-path="url(#clip0_0_1)">
<rect width="1440" height="4720" transform="translate(-284 -1252)" fill="white"/>
<g id="Our Services" clip-path="url(#clip1_0_1)">
<g id="Our Services_2">
<rect id="bg" x="-284" y="-369" width="1440" height="760" fill="#FEF5F5"/>
<g id="Card 02">
<rect id="fill" x="-78" y="-48.6572" width="300" height="310" rx="12" fill="white"/>
<g id="icon" filter="url(#filter0_d_0_1)">
<path id="Ellipse 1167 (Stroke)" fill-rule="evenodd" clip-rule="evenodd" d="M101.528 43.9008C103.746 43.9008 105.293 42.2198 105.293 40.4499C105.293 38.68 103.746 36.999 101.528 36.999C99.3096 36.999 97.7633 38.68 97.7633 40.4499C97.7633 42.2198 99.3096 43.9008 101.528 43.9008ZM101.528 47.038C105.34 47.038 108.43 44.0884 108.43 40.4499C108.43 36.8114 105.34 33.8618 101.528 33.8618C97.7161 33.8618 94.6261 36.8114 94.6261 40.4499C94.6261 44.0884 97.7161 47.038 101.528 47.038Z" fill="url(#paint0_linear_0_1)"/>
<path id="Ellipse 1169 (Stroke)" fill-rule="evenodd" clip-rule="evenodd" d="M58.2347 43.9008C60.453 43.9008 61.9993 42.2198 61.9993 40.4499C61.9993 38.68 60.453 36.999 58.2347 36.999C56.0164 36.999 54.4701 38.68 54.4701 40.4499C54.4701 42.2198 56.0164 43.9008 58.2347 43.9008ZM58.2347 47.038C62.0464 47.038 65.1365 44.0884 65.1365 40.4499C65.1365 36.8114 62.0464 33.8618 58.2347 33.8618C54.4229 33.8618 51.3329 36.8114 51.3329 40.4499C51.3329 44.0884 54.4229 47.038 58.2347 47.038Z" fill="url(#paint1_linear_0_1)"/>
<path id="Subtract" fill-rule="evenodd" clip-rule="evenodd" d="M47.3581 5C46.057 5 44.9716 5.99432 44.8579 7.29043L44.5635 10.6469H51.3332C52.0262 10.6469 52.588 11.2088 52.588 11.9018C52.588 12.5948 52.0262 13.1567 51.3332 13.1567H44.3433L44.1232 15.6664H48.8234C49.5165 15.6664 50.0783 16.2282 50.0783 16.9213C50.0783 17.6143 49.5165 18.1762 48.8234 18.1762H43.903L43.6829 20.6859H51.9606C52.6537 20.6859 53.2155 21.2477 53.2155 21.9408C53.2155 22.6338 52.6537 23.1957 51.9606 23.1957H43.4627L43.2426 25.7054H49.4509C50.1439 25.7054 50.7057 26.2672 50.7057 26.9603C50.7057 27.6533 50.1439 28.2151 49.4509 28.2151H43.0224L42.161 38.0348C42.0324 39.5018 43.1885 40.7639 44.6612 40.7639H50.0783C50.0783 36.2591 53.7302 32.6072 58.235 32.6072C62.7398 32.6072 66.3916 36.2591 66.3916 40.7639H87.3269H87.9748H93.3714C93.3714 36.2591 97.0233 32.6072 101.528 32.6072C106.033 32.6072 109.685 36.2591 109.685 40.7639H110.509C111.816 40.7639 112.904 39.7609 113.01 38.4583L113.992 26.4347C114.046 25.7672 113.832 25.1056 113.396 24.5972L105.417 15.288C104.94 14.7317 104.244 14.4115 103.511 14.4115H94.2498C93.8192 14.4115 93.4048 14.3013 93.0409 14.1012L93.707 7.77248C93.863 6.29063 92.7011 5 91.2111 5H47.3581ZM95.2314 16.5835C95.244 16.4201 95.3803 16.2939 95.5442 16.2939H102.234C102.584 16.2939 102.918 16.4402 103.156 16.6976L109.826 23.924C110.012 24.125 109.869 24.4505 109.596 24.4505H94.9651C94.7823 24.4505 94.6383 24.295 94.6523 24.1128L95.2314 16.5835ZM63.9398 17.2074L64.1807 15.8672H58.0218L56.1696 26.3328H57.8863L58.6994 21.7099H62.1629L62.4038 20.3847H58.9404L59.4975 17.2074H63.9398ZM71.78 16.5749C71.2379 16.1031 70.4397 15.8672 69.3857 15.8672H65.7716L63.9194 26.3328H65.6361L66.374 22.1466H67.6991L69.3555 26.3328H71.4035L69.5814 21.996C70.4347 21.7952 71.1073 21.4137 71.5993 20.8516C72.1012 20.2894 72.4124 19.672 72.5329 18.9994C72.573 18.7383 72.5931 18.5426 72.5931 18.4121C72.5931 17.6592 72.3221 17.0468 71.78 16.5749ZM70.8162 18.5627C70.8162 18.7032 70.8012 18.8488 70.771 18.9994C70.6807 19.5515 70.4397 19.9882 70.0482 20.3095C69.6667 20.6307 69.1548 20.7913 68.5123 20.7913H66.6149L67.2474 17.2074H69.1447C69.7069 17.2074 70.1235 17.3279 70.3946 17.5688C70.6757 17.7997 70.8162 18.131 70.8162 18.5627ZM76.2047 20.3697L76.7618 17.1923H80.8276L81.0686 15.8521H75.2861L73.4339 26.3328H79.2164L79.4573 24.9926H75.3915L75.9788 21.6948H79.5928L79.8187 20.3697H76.2047ZM84.1016 20.3697L84.6587 17.1923H88.7245L88.9654 15.8521H83.183L81.3308 26.3328H87.1132L87.3542 24.9926H83.2884L83.8757 21.6948H87.4897L87.7156 20.3697H84.1016Z" fill="url(#paint2_linear_0_1)"/>
<path id="Union" fill-rule="evenodd" clip-rule="evenodd" d="M38.7841 8.13721C38.0911 8.13721 37.5292 8.69903 37.5292 9.39208C37.5292 10.0851 38.0911 10.647 38.7841 10.647H53.8426C54.5356 10.647 55.0975 10.0851 55.0975 9.39208C55.0975 8.69903 54.5356 8.13721 53.8426 8.13721H38.7841ZM33.7646 13.1567C33.0716 13.1567 32.5097 13.7185 32.5097 14.4116C32.5097 15.1046 33.0716 15.6664 33.7646 15.6664H53.8426C54.5356 15.6664 55.0975 15.1046 55.0975 14.4116C55.0975 13.7185 54.5356 13.1567 53.8426 13.1567H33.7646ZM35.0195 19.4311C35.0195 18.738 35.5813 18.1762 36.2744 18.1762H53.8426C54.5356 18.1762 55.0975 18.738 55.0975 19.4311C55.0975 20.1241 54.5356 20.6859 53.8426 20.6859H36.2744C35.5813 20.6859 35.0195 20.1241 35.0195 19.4311ZM31.2549 23.1957C30.5618 23.1957 30 23.7575 30 24.4506C30 25.1436 30.5618 25.7054 31.2549 25.7054H53.8426C54.5356 25.7054 55.0975 25.1436 55.0975 24.4506C55.0975 23.7575 54.5356 23.1957 53.8426 23.1957H31.2549Z" fill="url(#paint3_linear_0_1)"/>
</g>
</g>
</g>
</g>
</g>
<defs>
<filter id="filter0_d_0_1" x="0" y="0" width="144" height="102.038" filterUnits="userSpaceOnUse" color-interpolation-filters="sRGB">
<feFlood flood-opacity="0" result="BackgroundImageFix"/>
<feColorMatrix in="SourceAlpha" type="matrix" values="0 0 0 0 0 0 0 0 0 0 0 0 0 0 0 0 0 0 127 0" result="hardAlpha"/>
<feOffset dy="25"/>
<feGaussianBlur stdDeviation="15"/>
<feColorMatrix type="matrix" values="0 0 0 0 0.972549 0 0 0 0 0.262745 0 0 0 0 0.266667 0 0 0 0.1 0"/>
<feBlend mode="normal" in2="BackgroundImageFix" result="effect1_dropShadow_0_1"/>
<feBlend mode="normal" in="SourceGraphic" in2="effect1_dropShadow_0_1" result="shape"/>
</filter>
<linearGradient id="paint0_linear_0_1" x1="101.528" y1="33.8618" x2="101.528" y2="47.038" gradientUnits="userSpaceOnUse">
<stop stop-color="#FF6162"/>
<stop offset="1" stop-color="#F43435"/>
</linearGradient>
<linearGradient id="paint1_linear_0_1" x1="58.2347" y1="33.8618" x2="58.2347" y2="47.038" gradientUnits="userSpaceOnUse">
<stop stop-color="#FF6162"/>
<stop offset="1" stop-color="#F43435"/>
</linearGradient>
<linearGradient id="paint2_linear_0_1" x1="49.8781" y1="5" x2="113.038" y2="44.1144" gradientUnits="userSpaceOnUse">
<stop stop-color="#FF6263"/>
<stop offset="1" stop-color="#F43435"/>
</linearGradient>
<linearGradient id="paint3_linear_0_1" x1="32.6991" y1="8.13721" x2="59.7948" y2="18.3698" gradientUnits="userSpaceOnUse">
<stop stop-color="#F43435"/>
<stop offset="0.458015" stop-color="#FF6364"/>
<stop offset="0.651879" stop-color="#FE5E5E"/>
<stop offset="1" stop-color="#FE5C5D"/>
</linearGradient>
<clipPath id="clip0_0_1">
<rect width="1440" height="4720" fill="white" transform="translate(-284 -1252)"/>
</clipPath>
<clipPath id="clip1_0_1">
<rect width="1440" height="760" fill="white" transform="translate(-284 -369)"/>
</clipPath>
</defs>
</svg>
